<mxfile host="app.diagrams.net" modified="2023-08-19T01:26:15.905Z" agent="Mozilla/5.0 (X11; Ubuntu; Linux x86_64; rv:109.0) Gecko/20100101 Firefox/116.0" etag="ahv1eqNqUJLFT5NoQFVA" version="21.3.4" type="device">
  <diagram name="Page-1" id="q2m0qFbhMNcTL_84wyQx">
    <mxGraphModel dx="794" dy="795" grid="1" gridSize="10" guides="1" tooltips="1" connect="1" arrows="1" fold="1" page="1" pageScale="1" pageWidth="850" pageHeight="1100" math="0" shadow="0">
      <root>
        <mxCell id="0" />
        <mxCell id="1" parent="0" />
        <mxCell id="DZ7VFU2fkXCe_ntmSwC_-1" value="&lt;div&gt;1) Terraform mock up&lt;/div&gt;&lt;div&gt;2) docker and k8s&lt;/div&gt;&lt;div&gt;3) logging service eg datadog&lt;/div&gt;&lt;div&gt;4) containerize api&lt;/div&gt;&lt;div&gt;5) containerize front end&lt;/div&gt;&lt;div&gt;6) database? needed?&lt;br&gt;&lt;/div&gt;" style="rounded=0;whiteSpace=wrap;html=1;" parent="1" vertex="1">
          <mxGeometry x="40" y="80" width="220" height="140" as="geometry" />
        </mxCell>
        <mxCell id="DZ7VFU2fkXCe_ntmSwC_-2" value="&lt;div&gt;Questions&lt;/div&gt;&lt;div&gt;1) What is my success metrics&lt;/div&gt;&lt;div&gt;2) What information do I want to display?&lt;/div&gt;&lt;div&gt;3) Should I use google location services to see what is nearby?&lt;/div&gt;&lt;div&gt;4) auto seed data?&lt;/div&gt;&lt;div&gt;5) track user actions?&lt;br&gt;&lt;/div&gt;" style="rounded=0;whiteSpace=wrap;html=1;" parent="1" vertex="1">
          <mxGeometry x="305" y="80" width="120" height="180" as="geometry" />
        </mxCell>
        <mxCell id="DZ7VFU2fkXCe_ntmSwC_-3" value="over all plan" style="text;html=1;strokeColor=none;fillColor=none;align=center;verticalAlign=middle;whiteSpace=wrap;rounded=0;" parent="1" vertex="1">
          <mxGeometry x="105" y="80" width="90" height="30" as="geometry" />
        </mxCell>
        <mxCell id="DZ7VFU2fkXCe_ntmSwC_-6" value="&lt;div&gt;Front end&lt;/div&gt;&lt;div&gt;1) inital page - search(type food, name of business, location), quick pick&lt;/div&gt;&lt;div&gt;2) sorting by table values (closest first =&amp;gt; display distance)&lt;/div&gt;&lt;div&gt;3) click on choice -&amp;gt; address&lt;/div&gt;&lt;div&gt;&lt;br&gt;&lt;/div&gt;" style="rounded=0;whiteSpace=wrap;html=1;" parent="1" vertex="1">
          <mxGeometry x="470" y="80" width="220" height="120" as="geometry" />
        </mxCell>
        <mxCell id="zWjv-HVz__V4-7USTb6t-22" value="" style="group" vertex="1" connectable="0" parent="1">
          <mxGeometry x="120" y="390" width="330" height="420" as="geometry" />
        </mxCell>
        <mxCell id="zWjv-HVz__V4-7USTb6t-19" value="" style="rounded=1;whiteSpace=wrap;html=1;" vertex="1" parent="zWjv-HVz__V4-7USTb6t-22">
          <mxGeometry y="340" width="330" height="80" as="geometry" />
        </mxCell>
        <mxCell id="zWjv-HVz__V4-7USTb6t-21" style="edgeStyle=orthogonalEdgeStyle;rounded=0;orthogonalLoop=1;jettySize=auto;html=1;exitX=0.5;exitY=1;exitDx=0;exitDy=0;entryX=0.5;entryY=0;entryDx=0;entryDy=0;" edge="1" parent="zWjv-HVz__V4-7USTb6t-22" source="zWjv-HVz__V4-7USTb6t-16" target="zWjv-HVz__V4-7USTb6t-19">
          <mxGeometry relative="1" as="geometry" />
        </mxCell>
        <mxCell id="zWjv-HVz__V4-7USTb6t-16" value="" style="rounded=1;whiteSpace=wrap;html=1;" vertex="1" parent="zWjv-HVz__V4-7USTb6t-22">
          <mxGeometry width="330" height="300" as="geometry" />
        </mxCell>
        <mxCell id="zWjv-HVz__V4-7USTb6t-3" value="food_facility Service Layer" style="rounded=1;whiteSpace=wrap;html=1;" vertex="1" parent="zWjv-HVz__V4-7USTb6t-22">
          <mxGeometry x="100" y="100" width="120" height="60" as="geometry" />
        </mxCell>
        <mxCell id="zWjv-HVz__V4-7USTb6t-5" style="edgeStyle=orthogonalEdgeStyle;rounded=0;orthogonalLoop=1;jettySize=auto;html=1;exitX=0.5;exitY=1;exitDx=0;exitDy=0;entryX=0.5;entryY=0;entryDx=0;entryDy=0;" edge="1" parent="zWjv-HVz__V4-7USTb6t-22" source="zWjv-HVz__V4-7USTb6t-4" target="zWjv-HVz__V4-7USTb6t-3">
          <mxGeometry relative="1" as="geometry" />
        </mxCell>
        <mxCell id="zWjv-HVz__V4-7USTb6t-4" value="Flask API" style="rounded=1;whiteSpace=wrap;html=1;" vertex="1" parent="zWjv-HVz__V4-7USTb6t-22">
          <mxGeometry x="100" y="20" width="120" height="60" as="geometry" />
        </mxCell>
        <mxCell id="zWjv-HVz__V4-7USTb6t-11" value="PSQL Database" style="rounded=1;whiteSpace=wrap;html=1;" vertex="1" parent="zWjv-HVz__V4-7USTb6t-22">
          <mxGeometry x="100" y="350" width="120" height="60" as="geometry" />
        </mxCell>
        <mxCell id="zWjv-HVz__V4-7USTb6t-14" value="" style="group" vertex="1" connectable="0" parent="zWjv-HVz__V4-7USTb6t-22">
          <mxGeometry x="25" y="180" width="270" height="110" as="geometry" />
        </mxCell>
        <mxCell id="zWjv-HVz__V4-7USTb6t-2" value="" style="rounded=1;whiteSpace=wrap;html=1;" vertex="1" parent="zWjv-HVz__V4-7USTb6t-14">
          <mxGeometry width="270" height="110" as="geometry" />
        </mxCell>
        <mxCell id="zWjv-HVz__V4-7USTb6t-7" value="Declaritive Base Table" style="rounded=1;whiteSpace=wrap;html=1;" vertex="1" parent="zWjv-HVz__V4-7USTb6t-14">
          <mxGeometry x="145" y="30" width="120" height="60" as="geometry" />
        </mxCell>
        <mxCell id="zWjv-HVz__V4-7USTb6t-9" style="edgeStyle=orthogonalEdgeStyle;rounded=0;orthogonalLoop=1;jettySize=auto;html=1;exitX=1;exitY=0.5;exitDx=0;exitDy=0;entryX=0;entryY=0.5;entryDx=0;entryDy=0;" edge="1" parent="zWjv-HVz__V4-7USTb6t-14" source="zWjv-HVz__V4-7USTb6t-8" target="zWjv-HVz__V4-7USTb6t-7">
          <mxGeometry relative="1" as="geometry" />
        </mxCell>
        <mxCell id="zWjv-HVz__V4-7USTb6t-8" value="Engine setup" style="rounded=1;whiteSpace=wrap;html=1;" vertex="1" parent="zWjv-HVz__V4-7USTb6t-14">
          <mxGeometry x="5" y="30" width="120" height="60" as="geometry" />
        </mxCell>
        <mxCell id="zWjv-HVz__V4-7USTb6t-13" value="Database Connection" style="text;html=1;strokeColor=none;fillColor=none;align=center;verticalAlign=middle;whiteSpace=wrap;rounded=0;" vertex="1" parent="zWjv-HVz__V4-7USTb6t-14">
          <mxGeometry x="75" width="120" height="30" as="geometry" />
        </mxCell>
        <mxCell id="zWjv-HVz__V4-7USTb6t-6" style="edgeStyle=orthogonalEdgeStyle;rounded=0;orthogonalLoop=1;jettySize=auto;html=1;exitX=0.5;exitY=1;exitDx=0;exitDy=0;entryX=0.5;entryY=0;entryDx=0;entryDy=0;" edge="1" parent="zWjv-HVz__V4-7USTb6t-22" source="zWjv-HVz__V4-7USTb6t-3" target="zWjv-HVz__V4-7USTb6t-2">
          <mxGeometry relative="1" as="geometry" />
        </mxCell>
        <mxCell id="zWjv-HVz__V4-7USTb6t-17" value="Container" style="text;html=1;strokeColor=none;fillColor=none;align=center;verticalAlign=middle;whiteSpace=wrap;rounded=0;" vertex="1" parent="zWjv-HVz__V4-7USTb6t-22">
          <mxGeometry x="20" y="35" width="60" height="30" as="geometry" />
        </mxCell>
        <mxCell id="zWjv-HVz__V4-7USTb6t-20" value="Container" style="text;html=1;strokeColor=none;fillColor=none;align=center;verticalAlign=middle;whiteSpace=wrap;rounded=0;" vertex="1" parent="zWjv-HVz__V4-7USTb6t-22">
          <mxGeometry x="20" y="365" width="60" height="30" as="geometry" />
        </mxCell>
      </root>
    </mxGraphModel>
  </diagram>
</mxfile>
